# xmcd CD database file
#
# Track frame offsets:
#	183
#	17193
#	35993
#	57960
#	81505
#	102215
#	119193
#	136640
#	154160
#	174505
#	198093
#	214265
#	230648
#	249045
#	264495
#
# Disc length: 3867 seconds
#
# Revision: 1
# Processed by: cddbd v1.5.2PL0 Copyright (c) Steve Scherf et al.
# Submitted via: CDex 1.51
#
DISCID=d30f190f
DTITLE=Duke Taylor - SAXO
DYEAR=1900
DGENRE=Jazz
TTITLE0=Archie Shepp I can't touch you now
TTITLE1=Take my breath away
TTITLE2=Nuages
TTITLE3=Concerto d'Aranjuez
TTITLE4=In the mood
TTITLE5=The summer knows
TTITLE6=Pink panther
TTITLE7=Europa
TTITLE8=Just a gigolo
TTITLE9=Words
TTITLE10=Young ladies menuet
TTITLE11=Red stone fire
TTITLE12=If you leave me now
TTITLE13=Memories of Salisbury
TTITLE14=You are the sunshine of my life
EXTD=
EXTT0=
EXTT1=
EXTT2=
EXTT3=
EXTT4=
EXTT5=
EXTT6=
EXTT7=
EXTT8=
EXTT9=
EXTT10=
EXTT11=
EXTT12=
EXTT13=
EXTT14=
PLAYORDER=
